<svg width="159" height="25" viewBox="0 0 159 25" fill="none" xmlns="http://www.w3.org/2000/svg">
<g clip-path="url(#clip0_149_1058)">
<path d="M38.7469 22.4177C38.7474 22.4177 38.7472 22.4171 38.7472 22.4171C36.9576 21.4297 35.539 20.0605 34.4909 18.3097C33.4428 16.5585 32.9185 14.5786 32.9185 12.3653C32.9185 10.152 33.4428 8.20377 34.4909 6.45254C35.5393 4.70134 36.9584 3.332 38.7482 2.3445C40.5383 1.35702 42.5036 0.863281 44.6446 0.863281C46.7858 0.863281 48.7758 1.35702 50.556 2.3445C52.3361 3.332 53.7427 4.70134 54.7811 6.45254C55.817 8.20377 56.3361 10.1739 56.3361 12.3653C56.3361 14.5568 55.817 16.5585 54.7811 18.3097C53.7427 20.0609 52.3287 21.4303 50.5386 22.4177C48.7488 23.4052 46.7832 23.8989 44.6422 23.8989C42.5015 23.8989 40.5391 23.4054 38.7469 22.4183V22.4177ZM48.2789 18.9542C49.3271 18.3413 50.1454 17.4681 50.7364 16.3274C51.3247 15.1891 51.6214 13.8684 51.6214 12.3653C51.6214 10.8622 51.3273 9.54636 50.7364 8.4178C50.1481 7.28924 49.3271 6.4258 48.2789 5.82504C47.2308 5.22427 46.0193 4.92268 44.6446 4.92268C43.2702 4.92268 42.0512 5.22427 40.9931 5.82504C39.9349 6.4258 39.1091 7.29169 38.5208 8.4178C37.9325 9.54636 37.6358 10.8622 37.6358 12.3653C37.6358 13.8684 37.9299 15.1891 38.5208 16.3274C39.1091 17.4657 39.9349 18.3413 40.9931 18.9542C42.0512 19.5671 43.2702 19.8736 44.6446 19.8736C46.0193 19.8736 47.2332 19.5671 48.2789 18.9542Z" fill="white"/>
<path d="M63.7805 1.18457C63.9169 1.18457 64.0277 1.29346 64.0277 1.42779V15.1042C64.0277 16.6292 64.4307 17.7943 65.239 18.5994C66.0475 19.4044 67.1821 19.8082 68.6459 19.8082C70.1094 19.8082 71.2763 19.4044 72.0848 18.5994C72.8931 17.7943 73.2961 16.6292 73.2961 15.1042V1.42779C73.2961 1.29346 73.4069 1.18457 73.5433 1.18457H77.6671C77.8038 1.18457 77.9143 1.29346 77.9143 1.42779V15.0726C77.9143 16.9843 77.4942 18.6018 76.6536 19.9225C75.8131 21.2432 74.688 22.238 73.2813 22.902C71.8723 23.5684 70.3072 23.9016 68.5817 23.9016C66.8558 23.9016 65.3328 23.5684 63.946 22.902C62.5591 22.2356 61.4613 21.2432 60.6554 19.9225C59.8468 18.6018 59.4438 16.9843 59.4438 15.0726V1.42779C59.4438 1.29347 59.5546 1.18457 59.6911 1.18457H63.7805Z" fill="white"/>
<path d="M96.9237 1.18457C97.0601 1.18457 97.1709 1.29346 97.1709 1.42779V4.58241C97.1709 4.71674 97.0601 4.82562 96.9237 4.82562H91.3263C91.1899 4.82562 91.0791 4.93451 91.0791 5.06884V23.4322C91.0791 23.5665 90.9683 23.6754 90.8319 23.6754H86.7404C86.6037 23.6754 86.4932 23.5665 86.4932 23.4322V5.06884C86.4932 4.93451 86.3824 4.82562 86.2457 4.82562H80.6486C80.5119 4.82562 80.4014 4.71674 80.4014 4.58241V1.42779C80.4014 1.29346 80.5119 1.18457 80.6486 1.18457H96.9237Z" fill="white"/>
<path d="M124.618 23.4322V1.42779C124.618 1.29346 124.508 1.18457 124.371 1.18457H119.605C119.506 1.18457 119.416 1.24263 119.378 1.33215L112.398 17.3858C112.312 17.5825 112.029 17.5825 111.943 17.3858L104.964 1.33215C104.925 1.24263 104.835 1.18457 104.736 1.18457H99.9401C99.8037 1.18457 99.6929 1.29346 99.6929 1.42779V23.4322C99.6929 23.5665 99.8037 23.6754 99.9401 23.6754H104.032C104.168 23.6754 104.279 23.5665 104.279 23.4322V10.2708C104.279 10.0046 104.651 9.93182 104.754 10.1777L110.374 23.5253C110.412 23.6162 110.503 23.6754 110.603 23.6754H113.743C113.843 23.6754 113.934 23.6159 113.972 23.5248L119.557 10.1845C119.66 9.93819 120.032 10.0107 120.032 10.2772V23.4322C120.032 23.5665 120.143 23.6754 120.28 23.6754H124.371C124.508 23.6754 124.618 23.5665 124.618 23.4322Z" fill="white"/>
<path d="M133.902 1.18457C134.038 1.18457 134.149 1.29346 134.149 1.42779V23.4322C134.149 23.5665 134.038 23.6754 133.902 23.6754H129.81C129.674 23.6754 129.563 23.5665 129.563 23.4322V1.42779C129.563 1.29346 129.674 1.18457 129.81 1.18457H133.902Z" fill="white"/>
<path d="M158.647 23.4326C158.647 23.5669 158.536 23.6758 158.4 23.6758H154.194C154.111 23.6758 154.033 23.6349 153.988 23.5668L144.133 8.91499C143.998 8.71393 143.68 8.8081 143.68 9.04919V23.4326C143.68 23.5669 143.569 23.6758 143.432 23.6758H139.341C139.204 23.6758 139.094 23.5669 139.094 23.4326V1.39654C139.094 1.26221 139.204 1.15332 139.341 1.15332H143.547C143.63 1.15332 143.707 1.19434 143.753 1.26252L153.607 15.9442C153.742 16.1455 154.061 16.0513 154.061 15.8102V1.39654C154.061 1.26221 154.172 1.15332 154.308 1.15332H158.4C158.536 1.15332 158.647 1.26221 158.647 1.39654V23.4326Z" fill="white"/>
<path d="M23.7291 0H1.51799C0.67494 0 0 0.661553 0 1.49095V23.3008C0 24.1302 0.67494 24.7917 1.51799 24.7917H23.7142C24.5573 24.7917 25.2322 24.1302 25.2322 23.3008V1.47635C25.2322 0.663985 24.5573 0 23.7291 0ZM24.2038 12.7425L12.9993 23.7532C12.7991 23.9502 12.4777 23.9502 12.2626 23.7532L1.05814 12.7425C0.857887 12.5454 0.857887 12.2293 1.05814 12.0201L12.2626 1.00937C12.4628 0.812357 12.7842 0.812357 12.9993 1.00937L24.2038 12.0201C24.404 12.2317 24.404 12.5479 24.2038 12.7425Z" fill="#19FBBB"/>
</g>
<defs>
<clipPath id="clip0_149_1058">
<rect width="158.647" height="24.9722" fill="white"/>
</clipPath>
</defs>
</svg>
