<?xml version="1.0" encoding="UTF-8"?> <svg xmlns="http://www.w3.org/2000/svg" width="184.48" height="60" viewBox="0 0 184.48 60"><g id="Group_18" data-name="Group 18" transform="translate(-204.642 -436.427)"><g id="Group_12" data-name="Group 12" transform="translate(204.642 474.017)"><path id="Path_69" data-name="Path 69" d="M206.45,519.047a1.6,1.6,0,0,1,1.7,1.225h-.823a.862.862,0,0,0-.877-.582c-.616,0-1.025.455-1.025,1.259s.408,1.265,1.025,1.265a.843.843,0,0,0,.877-.583h.823a1.657,1.657,0,0,1-1.7,1.225,1.907,1.907,0,0,1,0-3.809Z" transform="translate(-204.642 -517.628)" fill="#45376a"></path><path id="Path_70" data-name="Path 70" d="M217.935,516.495h.763v1.694a1.463,1.463,0,0,1,1.145-.489,1.422,1.422,0,0,1,1.467,1.573v2.176h-.757v-2.062c0-.676-.368-1.024-.924-1.024a.894.894,0,0,0-.93,1.024v2.062h-.763Z" transform="translate(-211.659 -516.281)" fill="#45376a"></path><path id="Path_71" data-name="Path 71" d="M232.586,519.047a1.57,1.57,0,0,1,1.279.6v-.535h.77V522.8h-.77v-.549a1.588,1.588,0,0,1-1.292.61,1.783,1.783,0,0,1-1.727-1.922A1.755,1.755,0,0,1,232.586,519.047Zm.161.663a1.131,1.131,0,0,0-1.118,1.225,1.162,1.162,0,0,0,1.118,1.259,1.249,1.249,0,0,0,0-2.484Z" transform="translate(-218.474 -517.628)" fill="#45376a"></path><path id="Path_72" data-name="Path 72" d="M247.862,520.734c0-.676-.368-1.024-.924-1.024a.894.894,0,0,0-.93,1.024V522.8h-.763v-3.688h.763v.421a1.419,1.419,0,0,1,1.1-.482,1.437,1.437,0,0,1,1.513,1.573V522.8h-.757Z" transform="translate(-226.073 -517.628)" fill="#45376a"></path><path id="Path_73" data-name="Path 73" d="M259.9,519.047a1.562,1.562,0,0,1,1.279.6v-.535h.77v3.749a1.673,1.673,0,0,1-1.8,1.76,1.616,1.616,0,0,1-1.808-1.306h.757a1.028,1.028,0,0,0,1.051.643.983.983,0,0,0,1.031-1.1v-.616a1.584,1.584,0,0,1-1.279.616,1.785,1.785,0,0,1-1.74-1.922A1.755,1.755,0,0,1,259.9,519.047Zm.161.663a1.131,1.131,0,0,0-1.118,1.225,1.162,1.162,0,0,0,1.118,1.259,1.249,1.249,0,0,0,0-2.484Z" transform="translate(-232.888 -517.628)" fill="#45376a"></path><path id="Path_74" data-name="Path 74" d="M272.341,516.558a.485.485,0,1,1,.489.489A.482.482,0,0,1,272.341,516.558Zm.1.978h.763v3.689h-.763Z" transform="translate(-240.376 -516.056)" fill="#45376a"></path><path id="Path_75" data-name="Path 75" d="M283.164,520.734c0-.676-.368-1.024-.924-1.024a.894.894,0,0,0-.931,1.024V522.8h-.763v-3.688h.763v.421a1.421,1.421,0,0,1,1.1-.482,1.436,1.436,0,0,1,1.513,1.573V522.8h-.756Z" transform="translate(-244.707 -517.628)" fill="#45376a"></path><path id="Path_76" data-name="Path 76" d="M295.2,519.047a1.563,1.563,0,0,1,1.279.6v-.535h.77v3.749a1.672,1.672,0,0,1-1.8,1.76,1.615,1.615,0,0,1-1.807-1.306h.756a1.028,1.028,0,0,0,1.051.643.983.983,0,0,0,1.031-1.1v-.616a1.585,1.585,0,0,1-1.279.616,1.785,1.785,0,0,1-1.74-1.922A1.755,1.755,0,0,1,295.2,519.047Zm.161.663a1.131,1.131,0,0,0-1.118,1.225,1.162,1.162,0,0,0,1.118,1.259,1.249,1.249,0,0,0,0-2.484Z" transform="translate(-251.522 -517.628)" fill="#45376a"></path><path id="Path_77" data-name="Path 77" d="M315.56,518.772h-.435v-.622h.435v-.917h.77v.917h.9v.622h-.9v2.042c0,.275.107.389.428.389h.469v.636h-.6c-.656,0-1.065-.275-1.065-1.025Z" transform="translate(-262.96 -516.67)" fill="#45376a"></path><path id="Path_78" data-name="Path 78" d="M325.314,516.495h.763v1.694a1.464,1.464,0,0,1,1.145-.489,1.422,1.422,0,0,1,1.466,1.573v2.176h-.756v-2.062c0-.676-.368-1.024-.924-1.024a.894.894,0,0,0-.931,1.024v2.062h-.763Z" transform="translate(-268.338 -516.281)" fill="#45376a"></path><path id="Path_79" data-name="Path 79" d="M340.065,522.856a1.79,1.79,0,0,1-1.841-1.908,1.766,1.766,0,0,1,1.841-1.9,1.72,1.72,0,0,1,1.794,1.814,2.383,2.383,0,0,1-.026.375h-2.819a1.016,1.016,0,0,0,1.051.978.894.894,0,0,0,.871-.516h.823A1.686,1.686,0,0,1,340.065,522.856Zm-1.044-2.236h2.042a.958.958,0,0,0-1.031-.931A1,1,0,0,0,339.021,520.62Z" transform="translate(-275.152 -517.628)" fill="#45376a"></path><path id="Path_80" data-name="Path 80" d="M360.964,519.047a1.6,1.6,0,0,1,1.7,1.225h-.823a.862.862,0,0,0-.877-.582c-.616,0-1.025.455-1.025,1.259s.408,1.265,1.025,1.265a.843.843,0,0,0,.877-.583h.823a1.657,1.657,0,0,1-1.7,1.225,1.907,1.907,0,0,1,0-3.809Z" transform="translate(-286.201 -517.628)" fill="#45376a"></path><path id="Path_81" data-name="Path 81" d="M375.753,522.864h-.763v-.442a1.373,1.373,0,0,1-1.091.5,1.442,1.442,0,0,1-1.52-1.574v-2.169h.756v2.055c0,.676.369,1.025.924,1.025a.9.9,0,0,0,.931-1.025v-2.055h.763Z" transform="translate(-293.18 -517.695)" fill="#45376a"></path><path id="Path_82" data-name="Path 82" d="M385.9,516.495h.763v4.954H385.9Z" transform="translate(-300.316 -516.281)" fill="#45376a"></path><path id="Path_83" data-name="Path 83" d="M393.659,518.772h-.435v-.622h.435v-.917h.77v.917h.9v.622h-.9v2.042c0,.275.107.389.429.389h.468v.636h-.6c-.656,0-1.064-.275-1.064-1.025Z" transform="translate(-304.183 -516.67)" fill="#45376a"></path><path id="Path_84" data-name="Path 84" d="M406.718,522.864h-.763v-.442a1.374,1.374,0,0,1-1.092.5,1.441,1.441,0,0,1-1.519-1.574v-2.169h.756v2.055c0,.676.368,1.025.924,1.025a.9.9,0,0,0,.931-1.025v-2.055h.763Z" transform="translate(-309.525 -517.695)" fill="#45376a"></path><path id="Path_85" data-name="Path 85" d="M417.627,522.8h-.763v-3.688h.763v.535a1.2,1.2,0,0,1,1.1-.6v.79h-.194c-.562,0-.911.234-.911,1.018Z" transform="translate(-316.662 -517.628)" fill="#45376a"></path><path id="Path_86" data-name="Path 86" d="M427.858,522.856a1.79,1.79,0,0,1-1.841-1.908,1.766,1.766,0,0,1,1.841-1.9,1.72,1.72,0,0,1,1.794,1.814,2.387,2.387,0,0,1-.026.375h-2.819a1.015,1.015,0,0,0,1.051.978.892.892,0,0,0,.87-.516h.823A1.685,1.685,0,0,1,427.858,522.856Zm-1.044-2.236h2.042a.958.958,0,0,0-1.031-.931A1,1,0,0,0,426.814,520.62Z" transform="translate(-321.493 -517.628)" fill="#45376a"></path><path id="Path_87" data-name="Path 87" d="M448.811,522.856a1.8,1.8,0,0,1-1.847-1.908,1.881,1.881,0,1,1,3.762,0A1.847,1.847,0,0,1,448.811,522.856Zm0-.663a1.136,1.136,0,0,0,1.132-1.245,1.116,1.116,0,0,0-1.111-1.238,1.254,1.254,0,0,0-.02,2.484Z" transform="translate(-332.55 -517.628)" fill="#45376a"></path><path id="Path_88" data-name="Path 88" d="M460.492,518.143h-.435v-.622h.435v-.262c0-.85.435-1.218,1.4-1.218v.636c-.468,0-.629.161-.629.582v.262h.683v.622h-.683v3.066h-.77Z" transform="translate(-339.461 -516.041)" fill="#45376a"></path><path id="Path_89" data-name="Path 89" d="M477.385,518.143h-.435v-.622h.435v-.262c0-.85.435-1.218,1.4-1.218v.636c-.469,0-.629.161-.629.582v.262h.683v.622h-.683v3.066h-.77Z" transform="translate(-348.377 -516.041)" fill="#45376a"></path><path id="Path_90" data-name="Path 90" d="M487.954,522.856a1.8,1.8,0,0,1-1.848-1.908,1.881,1.881,0,1,1,3.762,0A1.848,1.848,0,0,1,487.954,522.856Zm0-.663a1.136,1.136,0,0,0,1.131-1.245,1.116,1.116,0,0,0-1.111-1.238,1.254,1.254,0,0,0-.02,2.484Z" transform="translate(-353.21 -517.628)" fill="#45376a"></path><path id="Path_91" data-name="Path 91" d="M501.037,522.856a1.392,1.392,0,0,1-1.539-1.192h.79a.673.673,0,0,0,.736.549c.442,0,.676-.188.676-.442,0-.723-2.142-.308-2.142-1.66,0-.589.549-1.064,1.419-1.064a1.265,1.265,0,0,1,1.426,1.185h-.763a.61.61,0,0,0-.689-.542c-.409,0-.623.168-.623.415,0,.743,2.082.328,2.123,1.66C502.45,522.388,501.907,522.856,501.037,522.856Z" transform="translate(-360.279 -517.628)" fill="#45376a"></path><path id="Path_92" data-name="Path 92" d="M511.511,518.772h-.435v-.622h.435v-.917h.77v.917h.9v.622h-.9v2.042c0,.275.107.389.428.389h.469v.636h-.6c-.657,0-1.065-.275-1.065-1.025Z" transform="translate(-366.391 -516.67)" fill="#45376a"></path><path id="Path_93" data-name="Path 93" d="M522.568,522.856a1.789,1.789,0,0,1-1.841-1.908,1.766,1.766,0,0,1,1.841-1.9,1.72,1.72,0,0,1,1.794,1.814,2.333,2.333,0,0,1-.026.375h-2.818a1.015,1.015,0,0,0,1.051.978.893.893,0,0,0,.87-.516h.823A1.686,1.686,0,0,1,522.568,522.856Zm-1.044-2.236h2.042a.958.958,0,0,0-1.031-.931A1,1,0,0,0,521.524,520.62Z" transform="translate(-371.485 -517.628)" fill="#45376a"></path><path id="Path_94" data-name="Path 94" d="M535.024,522.8h-.763v-3.688h.763v.535a1.2,1.2,0,0,1,1.1-.6v.79h-.194c-.563,0-.911.234-.911,1.018Z" transform="translate(-378.629 -517.628)" fill="#45376a"></path><path id="Path_95" data-name="Path 95" d="M553.159,519.047a1.6,1.6,0,0,1,1.7,1.225h-.823a.862.862,0,0,0-.877-.582c-.616,0-1.025.455-1.025,1.259s.409,1.265,1.025,1.265a.842.842,0,0,0,.877-.583h.823a1.657,1.657,0,0,1-1.7,1.225,1.907,1.907,0,0,1,0-3.809Z" transform="translate(-387.65 -517.628)" fill="#45376a"></path><path id="Path_96" data-name="Path 96" d="M565.846,519.047a1.571,1.571,0,0,1,1.279.6v-.535h.77V522.8h-.77v-.549a1.589,1.589,0,0,1-1.292.61,1.783,1.783,0,0,1-1.727-1.922A1.755,1.755,0,0,1,565.846,519.047Zm.161.663a1.132,1.132,0,0,0-1.119,1.225,1.163,1.163,0,0,0,1.119,1.259,1.249,1.249,0,0,0,0-2.484Z" transform="translate(-394.382 -517.628)" fill="#45376a"></path><path id="Path_97" data-name="Path 97" d="M579.268,522.8h-.763v-3.688h.763v.535a1.2,1.2,0,0,1,1.1-.6v.79h-.194c-.562,0-.91.234-.91,1.018Z" transform="translate(-401.982 -517.628)" fill="#45376a"></path><path id="Path_98" data-name="Path 98" d="M589.5,522.856a1.789,1.789,0,0,1-1.841-1.908,1.766,1.766,0,0,1,1.841-1.9,1.72,1.72,0,0,1,1.794,1.814,2.326,2.326,0,0,1-.027.375h-2.818a1.015,1.015,0,0,0,1.051.978.892.892,0,0,0,.87-.516h.823A1.685,1.685,0,0,1,589.5,522.856Zm-1.044-2.236H590.5a.958.958,0,0,0-1.031-.931A1,1,0,0,0,588.456,520.62Z" transform="translate(-406.814 -517.628)" fill="#45376a"></path></g><g id="Group_13" data-name="Group 13" transform="translate(262.051 436.427)" opacity="0.11"><path id="Path_99" data-name="Path 99" d="M336.5,494.8a11,11,0,0,1,.279-3.922,62.215,62.215,0,0,1,4.806-12.731,128.974,128.974,0,0,1,8.439-14.958,84.386,84.386,0,0,1,10.008-12.764c3.416-3.491,6.555-5.518,9.444-6.017A136.469,136.469,0,0,0,354.7,463.12a147.732,147.732,0,0,0-9.278,15.623l-.3.632a105.83,105.83,0,0,0,20.262-7.812,59.634,59.634,0,0,0,13.223-9.108,31.763,31.763,0,0,0,6.958-9.074,15.969,15.969,0,0,0,1.346-3.757l.118-.731a8.455,8.455,0,0,0-.709-5.784,7.77,7.77,0,0,0-4.215-3.191,21.534,21.534,0,0,0-6.743-.964,54.633,54.633,0,0,0-13.416,1.894,102.731,102.731,0,0,0-14.466,4.853,76.62,76.62,0,0,0-12.085,6.316c-3.387,2.227-5.566,4.354-6.612,6.349a3.742,3.742,0,0,0-.394,1.063,2.714,2.714,0,0,0,.322,2.094,4.509,4.509,0,0,0,2,1.729.26.26,0,0,1,.146.265l-.022.1a.884.884,0,0,1-.269.3.752.752,0,0,1-.479.133,4.937,4.937,0,0,1-2.706-1.662,5.248,5.248,0,0,1-1.131-4.022l.1-.632a6.373,6.373,0,0,1,.507-1.4c1.159-2.327,3.463-4.654,6.953-6.98a69.951,69.951,0,0,1,12.393-6.416,96.61,96.61,0,0,1,14.97-4.721,64.062,64.062,0,0,1,14.417-1.795,26.565,26.565,0,0,1,10.136,1.729,9.216,9.216,0,0,1,5.563,5.651,10.05,10.05,0,0,1,.143,5.186,16.132,16.132,0,0,1-1.269,3.59,38.044,38.044,0,0,1-9.063,11.236,76.194,76.194,0,0,1-15.07,10.271A82.215,82.215,0,0,1,347.3,481.2a56.689,56.689,0,0,0,6.593,5.618,40.007,40.007,0,0,0,7.607,4.52,18.421,18.421,0,0,0,7.626,1.8,11.609,11.609,0,0,0,3.866-.665,10.661,10.661,0,0,0,3.425-2.027l.048-.034a.148.148,0,0,1,.116.034c.034.034.075.034.108.066a.093.093,0,0,1,.019.1l-.007.033a17,17,0,0,1-4.732,4.089,10.587,10.587,0,0,1-5.381,1.429,13.239,13.239,0,0,1-4.367-.8,38.365,38.365,0,0,1-10.742-6.283,65.844,65.844,0,0,1-7.509-7.047,8.766,8.766,0,0,1-.5.964q-.578,1.246-1.133,2.393a82.2,82.2,0,0,0-4.439,11.036C337.11,496.327,336.66,495.762,336.5,494.8Z" transform="translate(-326.231 -436.427)" fill="#45376a"></path></g><path id="Path_100" data-name="Path 100" d="M213.9,486.9c0-2.222-1.544-3.548-4.131-3.548h-3.665v11.982H207.6v-4.87h1.9l2.885,4.87h1.781l-3.033-5A3.363,3.363,0,0,0,213.9,486.9Zm-6.3-2.24h2.173c1.754,0,2.607.733,2.607,2.24,0,1.477-.92,2.29-2.59,2.29H207.6Zm10.8-1.324h6.411v1.291h-4.92v4.03h4.42v1.291h-4.42v4.1h4.92v1.291H218.4Zm18.5,8.768c0,1.663-1.345,3.348-3.915,3.348-2.341,0-4.026-1.347-4.1-3.275l-.006-.168h1.548l.015.145a2.269,2.269,0,0,0,2.541,1.99c1.44,0,2.407-.8,2.407-1.99,0-1.489-1.293-1.835-2.79-2.236-1.695-.454-3.615-.967-3.615-3.419,0-1.932,1.6-3.281,3.9-3.281,2.152,0,3.688,1.169,3.914,2.977l.023.182h-1.588l-.023-.136a2.211,2.211,0,0,0-2.377-1.7,2.464,2.464,0,0,0-1.824.637,1.761,1.761,0,0,0-.514,1.286c0,1.455,1.289,1.808,2.781,2.217C234.976,489.152,236.9,489.679,236.9,492.108Zm3.594-8.752h7.979v1.291h-3.236v10.692h-1.491V484.646h-3.253Zm17.407-.134a6.119,6.119,0,1,0,5.933,6.116A5.829,5.829,0,0,0,257.9,483.222Zm0,10.892c-2.637,0-4.409-1.919-4.409-4.775s1.772-4.758,4.409-4.758,4.409,1.912,4.409,4.758S260.538,494.114,257.9,494.114Zm18.04-7.21c0-2.222-1.544-3.548-4.131-3.548h-3.665v11.982h1.492v-4.87h1.9l2.885,4.87h1.78l-3.033-5A3.363,3.363,0,0,0,275.942,486.9Zm-6.3-2.24h2.173c1.754,0,2.607.733,2.607,2.24,0,1.477-.92,2.29-2.59,2.29h-2.19Zm12.291-.033v4.03h4.42v1.291h-4.42v4.1h4.92v1.291h-6.411v-12h6.411v1.291Zm25.422-1.112v11.659h-1.168l-6.455-9.808v9.808h-1.168V483.518h1.168l6.455,9.791v-9.791Zm11.24.95h-4.92v4.354h4.42v.967h-4.42v4.42h4.92v.967H312.5V483.5h6.088Zm3.968-.95h7.656v.967h-3.235v10.692H325.81V484.485h-3.253Zm11.107,0h1.251l2.669,10.225,2.986-10.225h1.3l2.9,10.225,2.685-10.225h1.251l-3.3,11.659h-1.3l-2.936-9.941-3,9.941-1.268.017Zm24.566,11.776A5.958,5.958,0,1,1,364,489.338,5.686,5.686,0,0,1,358.23,495.293Zm0-1.018c2.586,0,4.57-1.885,4.57-4.937s-1.985-4.92-4.57-4.92-4.57,1.868-4.57,4.92S355.644,494.276,358.23,494.276Zm13.908-10.758c2.7,0,3.97,1.467,3.97,3.386a3.217,3.217,0,0,1-2.869,3.319l3,4.954h-1.4l-2.885-4.871H369.8v4.871h-1.168V483.518Zm0,.984H369.8v4.854h2.351c1.9,0,2.752-1.034,2.752-2.452C374.907,485.435,374.107,484.5,372.138,484.5Zm9.956,5.287v5.388h-1.168V483.518h1.168v5.454l5.054-5.454h1.484l-5.454,5.821,5.5,5.838h-1.535Z" transform="translate(-0.773 -24.7)" fill="#45376a"></path><g id="Group_17" data-name="Group 17" transform="translate(205.028 452.224)"><g id="Group_14" data-name="Group 14" transform="translate(0 0.256)"><path id="Path_101" data-name="Path 101" d="M205.8,471.437h-.337v-.356h.337v-.654h.431v.654h.678v.356h-.678v1.531c0,.256.095.346.361.346h.318v.365h-.389c-.459,0-.721-.19-.721-.712Z" transform="translate(-205.459 -470.427)" fill="#45376a"></path></g><g id="Group_15" data-name="Group 15" transform="translate(3.389 0)"><path id="Path_102" data-name="Path 102" d="M212.637,469.885h.431v1.285a.978.978,0,0,1,.858-.422,1,1,0,0,1,1.038,1.114v1.532h-.426v-1.47c0-.531-.289-.8-.726-.8s-.744.275-.744.835v1.437h-.431Z" transform="translate(-212.637 -469.885)" fill="#45376a"></path></g><g id="Group_16" data-name="Group 16" transform="translate(7.682 0.867)"><path id="Path_103" data-name="Path 103" d="M223.015,474.406a1.252,1.252,0,0,1-1.285-1.347,1.237,1.237,0,0,1,1.285-1.337,1.191,1.191,0,0,1,1.247,1.242,2.358,2.358,0,0,1-.014.261h-2.077a.817.817,0,0,0,.844.815.714.714,0,0,0,.73-.479h.465A1.168,1.168,0,0,1,223.015,474.406Zm-.839-1.531h1.64a.763.763,0,0,0-.821-.788A.8.8,0,0,0,222.176,472.875Z" transform="translate(-221.73 -471.722)" fill="#45376a"></path></g></g></g></svg> 