<?xml version="1.0" encoding="utf-8"?>
<!-- Generator: Adobe Illustrator 24.3.0, SVG Export Plug-In . SVG Version: 6.00 Build 0)  -->
<svg version="1.1" id="Layer_1" xmlns="http://www.w3.org/2000/svg" xmlns:xlink="http://www.w3.org/1999/xlink" x="0px" y="0px"
	 width="190px" height="28px" viewBox="0 0 190 28" enable-background="new 0 0 190 28" xml:space="preserve">
<g>
	<defs>
		<rect id="SVGID_1_" width="190" height="28"/>
	</defs>
	<clipPath id="SVGID_2_">
		<use xlink:href="#SVGID_1_"  overflow="visible"/>
	</clipPath>
	<g clip-path="url(#SVGID_2_)">
		<path fill="#FFFFFF" d="M62,1.2v17.1c0,2-0.4,3.7-1.2,5.1c-0.8,1.5-2,2.6-3.5,3.4C55.8,27.6,54,28,51.9,28c-3.1,0-5.6-0.9-7.3-2.6
			c-1.7-1.7-2.6-4.1-2.6-7.2v-17h4.1v16.7c0,2.2,0.5,3.8,1.4,4.8c1,1,2.4,1.6,4.5,1.6c3.9,0,5.8-2.1,5.8-6.4V1.2H62z"/>
		<path fill="#FFFFFF" d="M82.9,27.6h-4.1V15.4c0-1.5-0.3-2.7-0.9-3.5c-0.6-0.8-1.5-1.1-2.8-1.1c-1.7,0-3,0.5-3.8,1.6
			c-0.8,1.1-1.2,2.8-1.2,5.3v10h-4.1v-20h3.2l0.6,2.6h0.2c0.6-1,1.4-1.7,2.4-2.2c1.1-0.5,2.2-0.8,3.5-0.8c4.6,0,6.9,2.4,6.9,7.3
			L82.9,27.6L82.9,27.6z"/>
		<path fill="#FFFFFF" d="M86.8,1.2v26.4h4.1V1.2H86.8z"/>
		<path fill="#FFFFFF" d="M94.5,2.4c0-0.8,0.2-1.3,0.6-1.8c0.4-0.4,1-0.6,1.7-0.6c0.7,0,1.3,0.2,1.7,0.6c0.4,0.4,0.6,1,0.6,1.8
			c0,0.8-0.2,1.3-0.6,1.7c-0.4,0.4-1,0.6-1.7,0.6c-0.7,0-1.3-0.2-1.7-0.6C94.7,3.7,94.5,3.1,94.5,2.4z M98.8,27.6h-4.1v-20h4.1V27.6
			z"/>
		<path fill="#FFFFFF" d="M118.9,27.6h-4.1V15.3c0-1.5-0.3-2.7-0.8-3.4c-0.6-0.8-1.4-1.1-2.6-1.1c-1.6,0-2.7,0.5-3.4,1.6
			c-0.7,1.1-1.1,2.8-1.1,5.3v10h-4.1v-20h3.2l0.6,2.6h0.2c0.5-1,1.3-1.7,2.3-2.2c1-0.5,2.1-0.8,3.3-0.8c2.9,0,4.9,1,5.8,3.1h0.3
			c0.6-1,1.4-1.8,2.4-2.3c1-0.6,2.2-0.8,3.5-0.8c2.3,0,3.9,0.6,5,1.8c1,1.2,1.6,3,1.6,5.5v13h-4.1V15.3c0-1.5-0.3-2.7-0.8-3.4
			c-0.6-0.8-1.4-1.1-2.6-1.1c-1.6,0-2.7,0.5-3.5,1.5c-0.7,1-1.1,2.6-1.1,4.7L118.9,27.6L118.9,27.6z"/>
		<path fill="#FFFFFF" d="M134.5,2.4c0-0.8,0.2-1.3,0.6-1.8c0.4-0.4,1-0.6,1.7-0.6c0.7,0,1.3,0.2,1.7,0.6c0.4,0.4,0.6,1,0.6,1.8
			c0,0.8-0.2,1.3-0.6,1.7c-0.4,0.4-1,0.6-1.7,0.6c-0.7,0-1.3-0.2-1.7-0.6C134.7,3.7,134.5,3.1,134.5,2.4z M138.7,27.6h-4.1v-20h4.1
			V27.6z"/>
		<path fill="#FFFFFF" d="M150,24.6c-0.8,0-1.4-0.2-1.9-0.7c-0.5-0.5-0.7-1.2-0.7-2.3v-8.5l-4.1-1.1v9.7c0,4.2,1.9,6.4,5.8,6.4
			c0.8,0,1.5-0.1,2.2-0.2c0.7-0.1,1.3-0.3,1.7-0.5v-3.2C151.9,24.4,151,24.6,150,24.6L150,24.6z M143.2,10.9h4.1v0h5.4V7.7h-5.4V3.2
			h-2.5l-1.4,4.2L140.6,9v1.9L143.2,10.9L143.2,10.9L143.2,10.9z"/>
		<path fill="#FFFFFF" d="M163.2,28c-3,0-5.3-0.9-7-2.7c-1.7-1.8-2.5-4.3-2.5-7.5c0-3.2,0.8-5.8,2.3-7.7c1.6-1.9,3.7-2.8,6.4-2.8
			c2.5,0,4.5,0.8,6,2.4c1.5,1.6,2.2,3.8,2.2,6.6v2.3h-12.7c0.1,1.9,0.6,3.4,1.5,4.5c0.9,1,2.3,1.6,4,1.6c1.1,0,2.2-0.1,3.1-0.3
			s2-0.6,3.1-1.1v3.5c-1,0.5-2,0.8-3,1C165.7,27.9,164.5,28,163.2,28L163.2,28z M162.5,10.5c-1.3,0-2.3,0.4-3.1,1.3
			c-0.8,0.9-1.2,2.1-1.4,3.7h8.7c0-1.6-0.4-2.9-1.1-3.7C164.8,10.9,163.8,10.5,162.5,10.5L162.5,10.5z"/>
		<path fill="#FFFFFF" d="M185.9,1.2v5.6c0,0.8,0.1,2,0.3,3.4H186c-1.3-1.9-3.2-2.9-5.7-2.9s-4.3,0.9-5.6,2.7c-1.3,1.8-2,4.4-2,7.7
			s0.7,5.8,2,7.6c1.3,1.8,3.2,2.7,5.6,2.7c2.5,0,4.4-1,5.7-3h0.2l0.7,2.6h3.2V1.2H185.9L185.9,1.2z M186.1,18.3
			c0,2.2-0.4,3.8-1.2,4.8c-0.8,1-2,1.5-3.6,1.5c-1.5,0-2.6-0.6-3.4-1.7c-0.8-1.2-1.1-2.8-1.1-5.1c0-2.2,0.4-4,1.2-5.2
			c0.8-1.2,1.9-1.8,3.3-1.8c1.7,0,2.9,0.5,3.7,1.6c0.8,1.1,1.2,2.8,1.2,5.4L186.1,18.3L186.1,18.3z"/>
		<path fill="#F8CB46" d="M13.2,21.9H0v5.7h2.7c1.5,0,3.7-0.3,6-1.5C10.8,24.9,12,23.4,13.2,21.9L13.2,21.9z"/>
		<path fill="#D93650" d="M33.6,21.9v-5.7h-8.8c-4,0-6.5,1.2-8.2,2.3c-1.5,1-2.5,2.2-3.4,3.4H33.6L33.6,21.9z"/>
		<path fill="#D93650" d="M33.6,14.4V8.7h-8.8c-4,0-6.5,1.2-8.2,2.3c-1.5,1-2.5,2.2-3.4,3.4H33.6L33.6,14.4z"/>
		<path fill="#F8CB46" d="M13.2,6.9H0v5.7h2.7c0,0,0,0,0.1,0c1.5,0,3.7-0.3,5.9-1.5C10.8,10,12,8.5,13.2,6.9L13.2,6.9z"/>
		<path fill="#D93650" d="M33.6,6.9V1.2h-8.8c-4,0-6.5,1.2-8.2,2.3c-1.5,1-2.5,2.2-3.4,3.4L33.6,6.9L33.6,6.9z"/>
		<path fill="#F8CB46" d="M13.2,14.4H0v5.7h2.7c1.5,0,3.7-0.3,6-1.5C10.8,17.4,12,16,13.2,14.4L13.2,14.4z"/>
	</g>
</g>
</svg>
